<svg width="53" height="53" viewBox="0 0 53 53" fill="none" xmlns="http://www.w3.org/2000/svg">
<path d="M48.3418 0.103516H4.6582C2.08967 0.103516 0 2.19319 0 4.76172V42.0273C0 44.5959 2.08967 46.6855 4.6582 46.6855H31.1582V51.3438C31.1582 52.2013 31.8534 52.8965 32.7109 52.8965C33.5685 52.8965 34.2637 52.2013 34.2637 51.3438V35.8164H37.4727V51.3438C37.4727 52.2013 38.1679 52.8965 39.0254 52.8965C39.8829 52.8965 40.5781 52.2013 40.5781 51.3438V35.8164H43.5801V51.3438C43.5801 52.2013 44.2753 52.8965 45.1328 52.8965C45.9903 52.8965 46.6855 52.2013 46.6855 51.3438V46.6855H48.3418C50.9103 46.6855 53 44.5959 53 42.0273V4.76172C53 2.19319 50.9103 0.103516 48.3418 0.103516ZM4.6582 3.20898H48.3418C49.198 3.20898 49.8945 3.90554 49.8945 4.76172V12.5254H3.10547V4.76172C3.10547 3.90554 3.80203 3.20898 4.6582 3.20898ZM35.6123 32.7109L38.9219 27.7465L42.2315 32.7109H35.6123ZM48.3418 43.5801H46.6855V34.2637C46.6855 33.9572 46.5949 33.6575 46.4248 33.4024L40.2139 24.086C39.6011 23.1669 38.245 23.1634 37.6299 24.086L31.419 33.4024C31.2489 33.6575 31.1582 33.9572 31.1582 34.2637V43.5801H4.6582C3.80203 43.5801 3.10547 42.8835 3.10547 42.0273V15.6309H49.8945V42.0273C49.8945 42.8835 49.198 43.5801 48.3418 43.5801Z" fill="black"/>
<path d="M20.2891 31.1582H7.86719C7.00966 31.1582 6.31445 31.8534 6.31445 32.7109V38.9219C6.31445 39.7794 7.00966 40.4746 7.86719 40.4746H20.2891C21.1466 40.4746 21.8418 39.7794 21.8418 38.9219V32.7109C21.8418 31.8534 21.1466 31.1582 20.2891 31.1582ZM18.7363 37.3691H9.41992V34.2637H18.7363V37.3691Z" fill="black"/>
<path d="M35.8164 18.7363H7.86719C7.00966 18.7363 6.31445 19.4315 6.31445 20.2891C6.31445 21.1466 7.00966 21.8418 7.86719 21.8418H35.8164C36.6739 21.8418 37.3691 21.1466 37.3691 20.2891C37.3691 19.4315 36.6739 18.7363 35.8164 18.7363Z" fill="black"/>
<path d="M29.6055 24.9473H7.86719C7.00966 24.9473 6.31445 25.6425 6.31445 26.5C6.31445 27.3575 7.00966 28.0527 7.86719 28.0527H29.6055C30.463 28.0527 31.1582 27.3575 31.1582 26.5C31.1582 25.6425 30.463 24.9473 29.6055 24.9473Z" fill="black"/>
<path d="M7.86719 9.41992C8.72474 9.41992 9.41992 8.72474 9.41992 7.86719C9.41992 7.00964 8.72474 6.31445 7.86719 6.31445C7.00964 6.31445 6.31445 7.00964 6.31445 7.86719C6.31445 8.72474 7.00964 9.41992 7.86719 9.41992Z" fill="black"/>
<path d="M14.0781 9.41992C14.9357 9.41992 15.6309 8.72474 15.6309 7.86719C15.6309 7.00964 14.9357 6.31445 14.0781 6.31445C13.2206 6.31445 12.5254 7.00964 12.5254 7.86719C12.5254 8.72474 13.2206 9.41992 14.0781 9.41992Z" fill="black"/>
<path d="M20.2891 9.41992C21.1466 9.41992 21.8418 8.72474 21.8418 7.86719C21.8418 7.00964 21.1466 6.31445 20.2891 6.31445C19.4315 6.31445 18.7363 7.00964 18.7363 7.86719C18.7363 8.72474 19.4315 9.41992 20.2891 9.41992Z" fill="black"/>
<path d="M35.8164 9.41992H45.1328C45.9903 9.41992 46.6855 8.72471 46.6855 7.86719C46.6855 7.00966 45.9903 6.31445 45.1328 6.31445H35.8164C34.9589 6.31445 34.2637 7.00966 34.2637 7.86719C34.2637 8.72471 34.9589 9.41992 35.8164 9.41992Z" fill="black"/>
</svg>
