<svg width="53" height="53" viewBox="0 0 53 53" fill="none" xmlns="http://www.w3.org/2000/svg">
<path d="M48.3418 0.103516H4.6582C2.08967 0.103516 0 2.19319 0 4.76172V42.0273C0 44.5959 2.08967 46.6855 4.6582 46.6855H16.681C18.4286 50.3545 22.1728 52.8965 26.5 52.8965C30.8272 52.8965 34.5714 50.3545 36.319 46.6855H48.3418C50.9103 46.6855 53 44.5959 53 42.0273V4.76172C53 2.19319 50.9103 0.103516 48.3418 0.103516ZM4.6582 3.20898H48.3418C49.198 3.20898 49.8945 3.90554 49.8945 4.76172V12.5254H3.10547V4.76172C3.10547 3.90554 3.80203 3.20898 4.6582 3.20898ZM26.5 49.791C22.2191 49.791 18.7363 46.3082 18.7363 42.0273C18.7363 37.7465 22.2191 34.2637 26.5 34.2637C30.7809 34.2637 34.2637 37.7465 34.2637 42.0273C34.2637 46.3082 30.7809 49.791 26.5 49.791ZM48.3418 43.5801H37.2578C38.1983 37.0333 33.1104 31.1582 26.5 31.1582C19.9085 31.1582 14.7988 37.0134 15.7422 43.5801H4.6582C3.80203 43.5801 3.10547 42.8835 3.10547 42.0273V15.6309H49.8945V42.0273C49.8945 42.8835 49.198 43.5801 48.3418 43.5801Z" fill="black"/>
<path d="M17.5608 18.7832C16.7287 18.5753 15.8858 19.081 15.6778 19.9129L14.9764 22.7186L13.818 20.981C13.53 20.549 13.0451 20.2895 12.526 20.2895C12.0068 20.2895 11.522 20.549 11.234 20.981L10.0756 22.7186L9.37413 19.9129C9.16617 19.081 8.32293 18.5745 7.49119 18.7832C6.65923 18.9911 6.15346 19.8342 6.36142 20.666L7.91415 26.8769C8.06321 27.4733 8.54994 27.9255 9.15551 28.0304C9.76118 28.1348 10.3715 27.873 10.7125 27.3617L12.526 24.6415L14.3395 27.3617C14.6305 27.7983 15.118 28.0533 15.6312 28.0533C16.3418 28.0533 16.9646 27.5702 17.1379 26.8771L18.6906 20.6661C18.8986 19.8343 18.3927 18.9911 17.5608 18.7832V18.7832Z" fill="black"/>
<path d="M31.5354 18.7832C30.7033 18.5753 29.8604 19.081 29.6524 19.9129L28.951 22.7186L27.7926 20.981C27.1783 20.0596 25.8225 20.0603 25.2086 20.981L24.0502 22.7186L23.3487 19.9129C23.1407 19.081 22.2978 18.5745 21.4658 18.7832C20.6338 18.9911 20.1281 19.8342 20.336 20.666L21.8888 26.8769C22.0378 27.4733 22.5246 27.9255 23.1301 28.0304C23.7357 28.1348 24.3462 27.873 24.6871 27.3617L26.5006 24.6415L28.3141 27.3617C28.6052 27.7983 29.0926 28.0533 29.6059 28.0533C30.3164 28.0533 30.9392 27.5702 31.1125 26.8771L32.6653 20.6661C32.8732 19.8343 32.3673 18.9911 31.5354 18.7832V18.7832Z" fill="black"/>
<path d="M45.51 18.7832C44.6779 18.5753 43.835 19.081 43.6271 19.9129L42.9256 22.7186L41.7672 20.981C41.1529 20.0596 39.7971 20.0603 39.1832 20.981L38.0248 22.7186L37.3234 19.9129C37.1154 19.081 36.2723 18.5745 35.4404 18.7832C34.6085 18.9911 34.1027 19.8342 34.3106 20.666L35.8634 26.8769C36.0124 27.4733 36.4992 27.9255 37.1047 28.0304C37.7102 28.1348 38.3208 27.873 38.6617 27.3617L40.4752 24.6415L42.2887 27.3617C42.6262 27.8679 43.2329 28.136 43.8457 28.0304C44.4512 27.9255 44.938 27.4733 45.087 26.8769L46.6398 20.666C46.8478 19.8343 46.342 18.9911 45.51 18.7832V18.7832Z" fill="black"/>
<path d="M29.1282 39.3767L25.2574 43.2474L23.7674 41.7574C23.1611 41.1511 22.1779 41.1511 21.5715 41.7574C20.9651 42.3637 20.9651 43.3469 21.5715 43.9533L24.1594 46.5412C24.7658 47.1476 25.7489 47.1476 26.3553 46.5412L31.324 41.5725C31.9304 40.9662 31.9304 39.983 31.324 39.3766C30.7177 38.7703 29.7345 38.7703 29.1282 39.3767Z" fill="black"/>
<path d="M7.86719 9.41992C8.72474 9.41992 9.41992 8.72474 9.41992 7.86719C9.41992 7.00964 8.72474 6.31445 7.86719 6.31445C7.00964 6.31445 6.31445 7.00964 6.31445 7.86719C6.31445 8.72474 7.00964 9.41992 7.86719 9.41992Z" fill="black"/>
<path d="M14.0781 9.41992C14.9357 9.41992 15.6309 8.72474 15.6309 7.86719C15.6309 7.00964 14.9357 6.31445 14.0781 6.31445C13.2206 6.31445 12.5254 7.00964 12.5254 7.86719C12.5254 8.72474 13.2206 9.41992 14.0781 9.41992Z" fill="black"/>
<path d="M20.2891 9.41992C21.1466 9.41992 21.8418 8.72474 21.8418 7.86719C21.8418 7.00964 21.1466 6.31445 20.2891 6.31445C19.4315 6.31445 18.7363 7.00964 18.7363 7.86719C18.7363 8.72474 19.4315 9.41992 20.2891 9.41992Z" fill="black"/>
<path d="M35.8164 9.41992H45.1328C45.9903 9.41992 46.6855 8.72471 46.6855 7.86719C46.6855 7.00966 45.9903 6.31445 45.1328 6.31445H35.8164C34.9589 6.31445 34.2637 7.00966 34.2637 7.86719C34.2637 8.72471 34.9589 9.41992 35.8164 9.41992Z" fill="black"/>
</svg>
