<svg width="53" height="53" viewBox="0 0 53 53" fill="none" xmlns="http://www.w3.org/2000/svg">
<g clip-path="url(#clip0)">
<path d="M46.876 35.4818C47.7274 34.4186 48.2383 33.0715 48.2383 31.6067C48.2383 28.182 45.4521 25.3958 42.0274 25.3958C38.6027 25.3958 35.8164 28.182 35.8164 31.6067C35.8164 33.0687 36.3254 34.4133 37.174 35.4756C36.1027 35.9255 35.1166 36.5663 34.2584 37.3765C33.4141 36.5843 32.4307 35.9387 31.3486 35.4818C32.2 34.4186 32.711 33.0715 32.711 31.6067C32.711 28.182 29.9247 25.3958 26.5 25.3958C23.0753 25.3958 20.2891 28.182 20.2891 31.6067C20.2891 33.0715 20.8 34.4186 21.6515 35.4818C20.5692 35.9388 19.5855 36.5847 18.741 37.3772C17.8828 36.5675 16.8966 35.9263 15.8256 35.4763C16.6744 34.4139 17.1836 33.0691 17.1836 31.6067C17.1836 28.182 14.3974 25.3958 10.9727 25.3958C7.54795 25.3958 4.76172 28.182 4.76172 31.6067C4.76172 33.0715 5.27268 34.4186 6.12409 35.4818C2.59007 36.9742 0.103516 40.4752 0.103516 44.5461V51.8958C0.103516 52.7533 0.798727 53.4485 1.65625 53.4485H51.3438C52.2013 53.4485 52.8965 52.7533 52.8965 51.8958V44.5461C52.8965 40.4752 50.41 36.9742 46.876 35.4818ZM42.0274 28.5012C43.7397 28.5012 45.1329 29.8943 45.1329 31.6067C45.1329 33.319 43.7397 34.7122 42.0274 34.7122C40.315 34.7122 38.9219 33.319 38.9219 31.6067C38.9219 29.8943 40.315 28.5012 42.0274 28.5012ZM26.5 28.5012C28.2124 28.5012 29.6055 29.8943 29.6055 31.6067C29.6055 33.319 28.2124 34.7122 26.5 34.7122C24.7877 34.7122 23.3946 33.319 23.3946 31.6067C23.3946 29.8943 24.7877 28.5012 26.5 28.5012ZM10.9727 28.5012C12.685 28.5012 14.0781 29.8943 14.0781 31.6067C14.0781 33.319 12.685 34.7122 10.9727 34.7122C9.26031 34.7122 7.8672 33.319 7.8672 31.6067C7.8672 29.8943 9.26031 28.5012 10.9727 28.5012ZM3.20899 44.5461C3.20899 40.836 6.2274 37.8176 9.93751 37.8176H12.0078C13.8464 37.8176 15.5644 38.55 16.8268 39.8495C16.0645 41.246 15.6309 42.8463 15.6309 44.5461V50.343H3.20899V44.5461ZM34.2637 50.343H18.7363V44.5461C18.7363 40.836 21.7548 37.8176 25.4649 37.8176H27.5352C31.2453 37.8176 34.2637 40.836 34.2637 44.5461V50.343ZM49.7911 50.343H37.3692V44.5461C37.3692 42.8465 36.9357 41.2463 36.1735 39.8499C37.4351 38.5499 39.1504 37.8176 40.9922 37.8176H43.0625C46.7727 37.8176 49.7911 40.836 49.7911 44.5461V50.343Z" fill="black"/>
<path d="M17.1836 18.7363H18.7363V21.8418C18.7363 23.1257 20.2045 23.8464 21.2207 23.084L27.0176 18.7363H35.8164C38.385 18.7363 40.4746 16.6467 40.4746 14.0781V4.6582C40.4746 2.08967 38.385 0 35.8164 0H17.1836C14.6151 0 12.5254 2.08967 12.5254 4.6582V14.0781C12.5254 16.6467 14.6151 18.7363 17.1836 18.7363ZM15.6309 4.6582C15.6309 3.80203 16.3274 3.10547 17.1836 3.10547H35.8164C36.6726 3.10547 37.3692 3.80203 37.3692 4.6582V14.0781C37.3692 14.9343 36.6726 15.6309 35.8164 15.6309H26.5C26.164 15.6309 25.8372 15.7399 25.5684 15.9414L21.8418 18.7363V17.1836C21.8418 16.3261 21.1466 15.6309 20.2891 15.6309H17.1836C16.3274 15.6309 15.6309 14.9343 15.6309 14.0781V4.6582Z" fill="black"/>
</g>
<defs>
<clipPath id="clip0">
<rect width="53.0001" height="53" fill="white"/>
</clipPath>
</defs>
</svg>
