<svg width="53" height="53" viewBox="0 0 53 53" fill="none" xmlns="http://www.w3.org/2000/svg">
<path d="M48.3418 0H4.6582C2.08967 0 0 2.08967 0 4.6582V45.0293C0 47.5978 2.08967 49.6875 4.6582 49.6875H18.7363V51.4473C18.7363 52.3048 19.4315 53 20.2891 53C21.1466 53 21.8418 52.3048 21.8418 51.4473V43.3668C21.8418 42.8126 21.5464 42.3003 21.0666 42.0228C17.7137 40.0833 15.6309 36.4755 15.6309 32.6074C15.6309 29.7387 16.7767 27.013 18.7363 25.005V29.502C18.7363 29.9908 18.9664 30.4509 19.3574 30.7441L25.5684 35.4023C26.1204 35.8164 26.8796 35.8164 27.4316 35.4023L33.6426 30.7441C34.0336 30.4509 34.2637 29.9908 34.2637 29.502V25.005C36.2233 27.013 37.3691 29.7387 37.3691 32.6074C37.3691 36.4755 35.2863 40.0833 31.9334 42.0228C31.4536 42.3004 31.1582 42.8126 31.1582 43.3668V51.4473C31.1582 52.3048 31.8534 53 32.7109 53C33.5685 53 34.2637 52.3048 34.2637 51.4473V49.6875H48.3418C50.9103 49.6875 53 47.5978 53 45.0293V4.6582C53 2.08967 50.9103 0 48.3418 0ZM4.6582 3.10547H48.3418C49.198 3.10547 49.8945 3.80203 49.8945 4.6582V12.4219H3.10547V4.6582C3.10547 3.80203 3.80203 3.10547 4.6582 3.10547ZM48.3418 46.582H34.2637V44.2278C38.1165 41.6472 40.4746 37.275 40.4746 32.6074C40.4746 27.6345 37.7977 22.9967 33.4884 20.504C32.4538 19.9053 31.1582 20.6549 31.1582 21.848V28.7256L26.5 32.2192L21.8418 28.7256V21.848C21.8418 20.6528 20.5443 19.9063 19.5116 20.504C15.2023 22.9967 12.5254 27.6345 12.5254 32.6074C12.5254 37.275 14.8835 41.6472 18.7363 44.2278V46.582H4.6582C3.80203 46.582 3.10547 45.8855 3.10547 45.0293V15.5273H49.8945V45.0293C49.8945 45.8855 49.198 46.582 48.3418 46.582Z" fill="black"/>
<path d="M7.86719 9.31641C8.72474 9.31641 9.41992 8.62122 9.41992 7.76367C9.41992 6.90612 8.72474 6.21094 7.86719 6.21094C7.00964 6.21094 6.31445 6.90612 6.31445 7.76367C6.31445 8.62122 7.00964 9.31641 7.86719 9.31641Z" fill="black"/>
<path d="M14.0781 9.31641C14.9357 9.31641 15.6309 8.62122 15.6309 7.76367C15.6309 6.90612 14.9357 6.21094 14.0781 6.21094C13.2206 6.21094 12.5254 6.90612 12.5254 7.76367C12.5254 8.62122 13.2206 9.31641 14.0781 9.31641Z" fill="black"/>
<path d="M20.2891 9.31641C21.1466 9.31641 21.8418 8.62122 21.8418 7.76367C21.8418 6.90612 21.1466 6.21094 20.2891 6.21094C19.4315 6.21094 18.7363 6.90612 18.7363 7.76367C18.7363 8.62122 19.4315 9.31641 20.2891 9.31641Z" fill="black"/>
<path d="M35.8164 9.31641H45.1328C45.9903 9.31641 46.6855 8.6212 46.6855 7.76367C46.6855 6.90615 45.9903 6.21094 45.1328 6.21094H35.8164C34.9589 6.21094 34.2637 6.90615 34.2637 7.76367C34.2637 8.6212 34.9589 9.31641 35.8164 9.31641Z" fill="black"/>
</svg>
