<svg width="53" height="53" viewBox="0 0 53 53" fill="none" xmlns="http://www.w3.org/2000/svg">
<path d="M10.9727 31.1765H17.1836C18.0411 31.1765 18.7363 30.4786 18.7363 29.6177V21.8235C18.7363 20.9626 18.0411 20.2646 17.1836 20.2646H10.9727C10.1151 20.2646 9.41992 20.9626 9.41992 21.8235V29.6177C9.41992 30.4786 10.1151 31.1765 10.9727 31.1765ZM12.5254 23.3823H15.6309V28.0588H12.5254V23.3823Z" fill="black"/>
<path d="M23.3945 31.1765H29.6055C30.463 31.1765 31.1582 30.4786 31.1582 29.6177V17.147C31.1582 16.2861 30.463 15.5881 29.6055 15.5881H23.3945C22.537 15.5881 21.8418 16.2861 21.8418 17.147V29.6177C21.8418 30.4786 22.537 31.1765 23.3945 31.1765ZM24.9473 18.7058H28.0527V28.0588H24.9473V18.7058Z" fill="black"/>
<path d="M35.8164 31.1765H42.0273C42.8849 31.1765 43.5801 30.4786 43.5801 29.6177V14.0293C43.5801 13.1684 42.8849 12.4705 42.0273 12.4705H35.8164C34.9589 12.4705 34.2637 13.1684 34.2637 14.0293V29.6177C34.2637 30.4786 34.9589 31.1765 35.8164 31.1765ZM37.3691 15.5881H40.4746V28.0588H37.3691V15.5881Z" fill="black"/>
<path d="M51.4472 9.35293C52.3047 9.35293 52.9999 8.655 52.9999 7.79411V1.55882C52.9999 0.697937 52.3047 0 51.4472 0H1.55273C0.69521 0 0 0.697937 0 1.55882V7.79411C0 8.655 0.69521 9.35293 1.55273 9.35293H3.20898V34.2941H1.55273C0.69521 34.2941 0 34.992 0 35.8529C0 36.7138 0.69521 37.4117 1.55273 37.4117H23.778L12.8887 50.4391C12.3375 51.0986 12.4231 52.0818 13.08 52.6352C13.7371 53.1888 14.7165 53.1025 15.2676 52.4431L24.9472 40.863V51.4411C24.9472 52.302 25.6424 52.9999 26.5 52.9999C27.3575 52.9999 28.0527 52.302 28.0527 51.4411V40.863L37.7324 52.4431C38.2837 53.1027 39.2631 53.1886 39.92 52.6352C40.5769 52.0818 40.6625 51.0985 40.1113 50.4391L29.2219 37.4117H51.4472C52.3047 37.4117 52.9999 36.7138 52.9999 35.8529C52.9999 34.992 52.3047 34.2941 51.4472 34.2941H49.791V9.35293H51.4472ZM3.10547 3.11764H49.8945V6.23529H3.10547V3.11764ZM46.6855 34.2941H6.31445V9.35293H46.6855V34.2941Z" fill="black"/>
</svg>
