<svg width="53" height="53" viewBox="0 0 53 53" fill="none" xmlns="http://www.w3.org/2000/svg">
<g clip-path="url(#clip0)">
<path d="M51.6287 45.0486L43.1253 36.5797C42.5187 35.9755 41.5373 35.9764 40.9317 36.5819L39.8535 37.6601L38.3372 36.1437C41.6656 32.3092 43.6826 27.3071 43.6826 21.8427C43.6827 9.79858 33.8847 0 21.8414 0C9.79806 0 0 9.79858 0 21.8427C0 33.8869 9.79796 43.6855 21.8414 43.6855C27.3055 43.6855 32.3072 41.6684 36.1415 38.3397L37.6578 39.8561L36.5621 40.9518C35.9563 41.5577 35.9557 42.5415 36.5621 43.1478L45.0526 51.6388C46.8675 53.4537 49.8206 53.4538 51.6356 51.6388C53.4573 49.8169 53.4545 46.8671 51.6287 45.0486V45.0486ZM3.10537 21.8427C3.10537 11.511 11.5103 3.10557 21.8413 3.10557C32.1722 3.10557 40.5772 11.511 40.5772 21.8427C40.5772 32.1744 32.1722 40.5799 21.8413 40.5799C11.5103 40.5799 3.10537 32.1744 3.10537 21.8427ZM49.4397 49.4427C48.8356 50.0469 47.8526 50.0469 47.2484 49.4427L39.8558 42.0497L42.0319 39.8736L49.4374 47.2489C50.0449 47.8543 50.0463 48.8362 49.4397 49.4427Z" fill="black"/>
<path d="M36.2718 24.7962L34.1435 23.5669C34.2968 22.4641 34.3076 21.2989 34.1435 20.1184L36.2718 18.8892C37.0145 18.4603 37.2688 17.5107 36.84 16.768L33.7347 11.3891C33.3054 10.6455 32.3548 10.3929 31.6135 10.8208L29.4837 12.0507C28.5732 11.3403 27.5652 10.7573 26.499 10.3246V7.86754C26.499 7.00991 25.8038 6.3147 24.9463 6.3147H18.7355C17.8779 6.3147 17.1827 7.00991 17.1827 7.86754V10.3247C16.1164 10.7574 15.1085 11.3404 14.1981 12.0508L12.0682 10.8209C11.3261 10.3926 10.376 10.6464 9.9471 11.3892L6.84173 16.7681C6.41297 17.5107 6.66731 18.4604 7.40993 18.8893L9.53831 20.1185C9.38501 21.2214 9.37414 22.3865 9.53831 23.567L7.40993 24.7962C6.66731 25.225 6.41297 26.1746 6.84173 26.9173L9.9471 32.2962C10.3755 33.0383 11.3254 33.2935 12.0682 32.8645L14.1981 31.6346C15.1086 32.345 16.1165 32.928 17.1827 33.3607V35.8179C17.1827 36.6755 17.8779 37.3707 18.7355 37.3707H24.9463C25.8038 37.3707 26.499 36.6755 26.499 35.8179V33.3607C27.5654 32.928 28.5733 32.345 29.4837 31.6346L31.6135 32.8645C32.3558 33.2928 33.3058 33.0388 33.7347 32.2962L36.84 26.9173C37.2688 26.1747 37.0145 25.225 36.2718 24.7962V24.7962ZM30.9054 19.6827C31.2354 21.0692 31.2466 22.569 30.9054 24.0027C30.7464 24.6706 31.0448 25.3637 31.6394 25.7071L33.3743 26.7091L31.8216 29.3987L30.0847 28.3956C29.49 28.0523 28.7403 28.1403 28.2414 28.6122C27.1822 29.614 25.8897 30.3614 24.5036 30.7737C23.8451 30.9695 23.3936 31.575 23.3936 32.262V34.2652H20.2882V32.262C20.2882 31.575 19.8367 30.9695 19.1782 30.7737C17.7921 30.3614 16.4996 29.6139 15.4404 28.6122C14.9416 28.1402 14.1918 28.0523 13.5971 28.3956L11.8602 29.3987L10.3074 26.7091L12.0424 25.7071C12.6369 25.3637 12.9354 24.6707 12.7764 24.0027C12.4464 22.6162 12.4352 21.1164 12.7764 19.6827C12.9354 19.0148 12.6369 18.3217 12.0424 17.9783L10.3074 16.9763L11.8602 14.2867L13.5971 15.2898C14.1918 15.6333 14.9414 15.5452 15.4404 15.0733C16.4995 14.0714 17.792 13.3241 19.1782 12.9117C19.8367 12.7159 20.2882 12.1104 20.2882 11.4234V9.42037H23.3936V11.4235C23.3936 12.1105 23.8451 12.716 24.5036 12.9119C25.8896 13.3242 27.1821 14.0716 28.2414 15.0734C28.7403 15.5453 29.4899 15.6333 30.0847 15.2899L31.8216 14.2869L33.3743 16.9764L31.6394 17.9784C31.0448 18.3218 30.7464 19.0148 30.9054 19.6827V19.6827Z" fill="black"/>
<path d="M21.8416 16.1493C18.7023 16.1493 16.1483 18.7034 16.1483 21.8429C16.1483 24.9823 18.7023 27.5364 21.8416 27.5364C24.9809 27.5364 27.5348 24.9823 27.5348 21.8429C27.5348 18.7034 24.9808 16.1493 21.8416 16.1493ZM21.8416 24.4309C20.4146 24.4309 19.2538 23.2699 19.2538 21.8429C19.2538 20.4158 20.4147 19.2549 21.8416 19.2549C23.2684 19.2549 24.4294 20.4158 24.4294 21.8429C24.4294 23.2699 23.2685 24.4309 21.8416 24.4309Z" fill="black"/>
</g>
<defs>
<clipPath id="clip0">
<rect width="53" height="53" fill="white"/>
</clipPath>
</defs>
</svg>
