<svg width="53" height="53" viewBox="0 0 53 53" fill="none" xmlns="http://www.w3.org/2000/svg">
<path d="M48.3418 4.76221H4.6582C2.08967 4.76221 0 6.85188 0 9.42041V34.2642C0 36.8327 2.08967 38.9224 4.6582 38.9224H19.458L25.208 47.5473C25.8223 48.4687 27.1781 48.468 27.792 47.5473L33.542 38.9224H48.3418C50.9103 38.9224 53 36.8327 53 34.2642V9.42041C53 6.85188 50.9103 4.76221 48.3418 4.76221ZM49.8945 34.2642C49.8945 35.1203 49.198 35.8169 48.3418 35.8169H32.7109C32.1918 35.8169 31.7069 36.0764 31.419 36.5084L26.5 43.8868L21.581 36.5084C21.2931 36.0764 20.8082 35.8169 20.2891 35.8169H4.6582C3.80203 35.8169 3.10547 35.1203 3.10547 34.2642V9.42041C3.10547 8.56423 3.80203 7.86768 4.6582 7.86768H48.3418C49.198 7.86768 49.8945 8.56423 49.8945 9.42041V34.2642Z" fill="black"/>
<path d="M16.6763 18.8772L14.4348 18.5023L13.3855 16.4863C12.8059 15.3728 11.2095 15.3746 10.6309 16.4863L9.58163 18.5023L7.34011 18.8772C6.10196 19.0846 5.61036 20.603 6.4889 21.4972L8.0819 23.118L7.74589 25.3656C7.56029 26.6072 8.85288 27.5441 9.97448 26.9848L12.0082 25.9705L14.042 26.9847C15.1657 27.5447 16.4559 26.6052 16.2706 25.3655L15.9346 23.1179L17.5276 21.4971C18.4075 20.6017 17.9127 19.0843 16.6763 18.8772ZM13.1769 21.4933C12.8352 21.841 12.6766 22.3291 12.7487 22.8112L12.7581 22.8742L12.7012 22.8458C12.2648 22.6282 11.7517 22.6282 11.3153 22.8458L11.2584 22.8742L11.2678 22.8112C11.3399 22.3291 11.1814 21.841 10.8396 21.4933L10.7949 21.4479L10.8578 21.4374C11.3387 21.3571 11.7538 21.0554 11.979 20.6229L12.0083 20.5664L12.0377 20.6229C12.2628 21.0554 12.678 21.3571 13.1589 21.4374L13.2218 21.4479L13.1769 21.4933Z" fill="black"/>
<path d="M31.1685 18.8772L28.9269 18.5023L27.8777 16.4863C27.2981 15.3728 25.7017 15.3746 25.1231 16.4863L24.0738 18.5023L21.8323 18.8772C20.5941 19.0846 20.1026 20.603 20.9811 21.4972L22.5741 23.118L22.2381 25.3656C22.0525 26.6072 23.345 27.544 24.4667 26.9848L26.5004 25.9705L28.5342 26.9847C29.6579 27.5447 30.9481 26.6052 30.7628 25.3655L30.4268 23.1179L32.0198 21.4971C32.4257 21.0841 32.568 20.4796 32.3891 19.929C32.21 19.3782 31.7396 18.9729 31.1685 18.8772ZM27.6691 21.4933C27.3274 21.841 27.1688 22.3291 27.2409 22.8112L27.2503 22.8742C27.0157 22.7572 26.7971 22.6826 26.5004 22.6826C26.2084 22.6826 25.9903 22.7545 25.7506 22.8742L25.76 22.8112C25.8321 22.3291 25.6736 21.841 25.3317 21.4933L25.2871 21.4479L25.35 21.4374C25.8309 21.3571 26.246 21.0554 26.4711 20.6229L26.5005 20.5664L26.5299 20.6229C26.755 21.0554 27.1702 21.3571 27.6511 21.4374L27.7139 21.4479L27.6691 21.4933Z" fill="black"/>
<path d="M45.6607 18.8772L43.4191 18.5023L42.3699 16.4863C41.7903 15.3728 40.1939 15.3746 39.6152 16.4863L38.566 18.5023L36.3245 18.8772C35.0863 19.0846 34.5947 20.603 35.4733 21.4972L37.0663 23.118L36.7303 25.3656C36.5447 26.6073 37.8373 27.544 38.9589 26.9848L40.9926 25.9705L43.0264 26.9847C44.1503 27.5448 45.4401 26.6038 45.255 25.3655L44.919 23.1179L46.512 21.4971C47.3918 20.6017 46.897 19.0843 45.6607 18.8772ZM42.1613 21.4933C41.8196 21.841 41.661 22.3291 41.7331 22.8112L41.7425 22.8742C41.5079 22.7572 41.2893 22.6826 40.9926 22.6826C40.7006 22.6826 40.4825 22.7545 40.2428 22.8742L40.2522 22.8112C40.3243 22.3291 40.1657 21.841 39.8239 21.4933L39.7793 21.4479L39.8421 21.4374C40.3231 21.3571 40.7382 21.0554 40.9633 20.6229L40.9927 20.5664L41.0221 20.6229C41.2472 21.0554 41.6624 21.3571 42.1433 21.4374L42.2061 21.4479L42.1613 21.4933Z" fill="black"/>
</svg>
