<svg width="53" height="53" viewBox="0 0 53 53" fill="none" xmlns="http://www.w3.org/2000/svg">
<path d="M48.3418 0.103516H4.6582C2.08967 0.103516 0 2.19319 0 4.76172V48.2383C0 50.8068 2.08967 52.8965 4.6582 52.8965H48.3418C50.9103 52.8965 53 50.8068 53 48.2383V4.76172C53 2.19319 50.9103 0.103516 48.3418 0.103516ZM4.6582 3.20898H48.3418C49.198 3.20898 49.8945 3.90554 49.8945 4.76172V12.5254H3.10547V4.76172C3.10547 3.90554 3.80203 3.20898 4.6582 3.20898ZM48.3418 49.791H4.6582C3.80203 49.791 3.10547 49.0945 3.10547 48.2383V15.6309H49.8945V48.2383C49.8945 49.0945 49.198 49.791 48.3418 49.791Z" fill="black"/>
<path d="M31.7698 20.4145C30.9816 20.0767 30.0687 20.4418 29.731 21.23L20.4145 42.9683C20.0767 43.7564 20.4419 44.6693 21.23 45.0071C22.0185 45.345 22.9312 44.9796 23.2689 44.1916L32.5853 22.4533C32.9232 21.6651 32.558 20.7523 31.7698 20.4145V20.4145Z" fill="black"/>
<path d="M18.396 25.5298C17.8602 24.8601 16.8829 24.7517 16.2136 25.2874L8.44995 31.4983C7.67368 32.1191 7.67316 33.3019 8.44995 33.9232L16.2136 40.1342C16.8833 40.67 17.8605 40.5613 18.396 39.8917C18.9317 39.2221 18.8232 38.2449 18.1535 37.7093L11.9055 32.7108L18.1535 27.7123C18.8232 27.1766 18.9317 26.1995 18.396 25.5298V25.5298Z" fill="black"/>
<path d="M44.5495 31.4983L36.7858 25.2874C36.1162 24.7516 35.139 24.8602 34.6034 25.5298C34.0677 26.1995 34.1762 27.1767 34.8459 27.7122L41.0939 32.7108L34.8459 37.7093C34.1762 38.245 34.0677 39.222 34.6034 39.8917C35.1398 40.562 36.1171 40.6693 36.7858 40.1341L44.5495 33.9232C45.3257 33.3024 45.3263 32.1196 44.5495 31.4983Z" fill="black"/>
<path d="M7.86719 9.41992C8.72474 9.41992 9.41992 8.72474 9.41992 7.86719C9.41992 7.00964 8.72474 6.31445 7.86719 6.31445C7.00964 6.31445 6.31445 7.00964 6.31445 7.86719C6.31445 8.72474 7.00964 9.41992 7.86719 9.41992Z" fill="black"/>
<path d="M14.0781 9.41992C14.9357 9.41992 15.6309 8.72474 15.6309 7.86719C15.6309 7.00964 14.9357 6.31445 14.0781 6.31445C13.2206 6.31445 12.5254 7.00964 12.5254 7.86719C12.5254 8.72474 13.2206 9.41992 14.0781 9.41992Z" fill="black"/>
<path d="M20.2891 9.41992C21.1466 9.41992 21.8418 8.72474 21.8418 7.86719C21.8418 7.00964 21.1466 6.31445 20.2891 6.31445C19.4315 6.31445 18.7363 7.00964 18.7363 7.86719C18.7363 8.72474 19.4315 9.41992 20.2891 9.41992Z" fill="black"/>
<path d="M35.8164 9.41992H45.1328C45.9903 9.41992 46.6855 8.72471 46.6855 7.86719C46.6855 7.00966 45.9903 6.31445 45.1328 6.31445H35.8164C34.9589 6.31445 34.2637 7.00966 34.2637 7.86719C34.2637 8.72471 34.9589 9.41992 35.8164 9.41992Z" fill="black"/>
</svg>
